<?xml version="1.0" encoding="UTF-8"?><svg id="a" xmlns="http://www.w3.org/2000/svg" xmlns:xlink="http://www.w3.org/1999/xlink" viewBox="0 0 230.1 230.13"><defs><style>.i{fill:url(#e);}.j{fill:url(#d);}.k{fill:url(#g);}.l{fill:url(#f);}.m{fill:url(#h);}.n{fill:url(#c);}.o{fill:url(#b);}</style><linearGradient id="b" x1="2.23" y1="95.1" x2="64.39" y2="95.1" gradientTransform="matrix(1, 0, 0, 1, 0, 0)" gradientUnits="userSpaceOnUse"><stop offset="0" stop-color="#65baea"/><stop offset=".16" stop-color="#56aeef"/><stop offset=".46" stop-color="#3f9cf8"/><stop offset=".75" stop-color="#3191fd"/><stop offset="1" stop-color="#2d8eff"/></linearGradient><linearGradient id="c" x1="41.21" y1="30.38" x2="164.31" y2="30.38" gradientTransform="matrix(1, 0, 0, 1, 0, 0)" gradientUnits="userSpaceOnUse"><stop offset="0" stop-color="#f28a14"/><stop offset=".24" stop-color="#f28d19"/><stop offset=".52" stop-color="#f49827"/><stop offset=".83" stop-color="#f7a93f"/><stop offset="1" stop-color="#fab650"/></linearGradient><linearGradient id="d" x1="117.82" y1="69.32" x2="227.47" y2="69.32" gradientTransform="matrix(1, 0, 0, 1, 0, 0)" gradientUnits="userSpaceOnUse"><stop offset="0" stop-color="#f28a14"/><stop offset="1" stop-color="#fccc81"/></linearGradient><linearGradient id="e" x1="88.41" y1="215.81" x2="214.6" y2="89.63" gradientTransform="matrix(1, 0, 0, 1, 0, 0)" gradientUnits="userSpaceOnUse"><stop offset="0" stop-color="#e6520f"/><stop offset="1" stop-color="#fab650"/></linearGradient><linearGradient id="f" x1="5.11" y1="98.44" x2="61.81" y2="131.18" gradientTransform="matrix(1, 0, 0, 1, 0, 0)" gradientUnits="userSpaceOnUse"><stop offset="0" stop-color="#65baea"/><stop offset="1" stop-color="#2d8eff"/></linearGradient><linearGradient id="g" x1="102.14" y1="81.67" x2="152.66" y2="132.18" gradientTransform="matrix(1, 0, 0, 1, 0, 0)" gradientUnits="userSpaceOnUse"><stop offset="0" stop-color="#42a5f5"/><stop offset=".21" stop-color="#429bf8"/><stop offset=".62" stop-color="#438efd"/><stop offset="1" stop-color="#448aff"/></linearGradient><linearGradient id="h" x1="47.27" y1="127.93" x2="94.79" y2="175.46" xlink:href="#g"/></defs><path class="o" d="M15.2,86.78l-5.95,5.96c-3.15,3.15-5.47,6.8-7.01,10.69,16.55-7.42,37.87-13.22,62.17-16.65H15.2Z"/><path class="n" d="M164.31,36.15l-26.89-26.89c-12.34-12.34-32.36-12.34-44.7,0L41.21,60.77H117.82c.63-.43,1.2-.9,1.84-1.33,14.56-9.84,29.64-17.52,44.65-23.29Z"/><path class="j" d="M220.89,92.73l-56.58-56.58c-15.01,5.77-31.89,14.35-46.49,24.62,0,0,15.88-.43,15.25,0h16.35c18.8,0,34.95,11.27,42.13,27.41,19.62,3.34,21.78,8.24,35.92,14.32-1.54-3.54-3.69-6.87-6.58-9.77Z"/><path class="i" d="M146.46,153l-49.42,.09v71.35c12.33,8.6,29.38,7.46,40.38-3.53l83.47-83.47c9.45-9.45,11.6-23.38,6.58-34.94-14.13-6.08-16.3-10.98-35.92-14.32,2.54,5.72,3.99,12.04,3.99,18.71,0,19.43-14.2,46.12-49.09,46.12Z"/><path class="l" d="M71.03,86.78h-6.64c-24.29,3.43-45.61,9.22-62.17,16.65-4.51,11.37-2.18,24.82,7.01,34.01l31.04,31.04c3.69-21.16,14.29-43.48,30.75-64.3v-17.4Z"/><g><path class="k" d="M149.42,86.78h-52.38v40.3h52.38c11.12,0,20.14-9.03,20.14-20.15s-9.02-20.15-20.14-20.15Z"/><path class="m" d="M71.03,104.17c-16.46,20.82-27.06,43.14-30.75,64.3l30.75,30.75V104.17Z"/></g></svg>