<svg viewBox="0 0 183 56" xmlns="http://www.w3.org/2000/svg" xml:space="preserve" fill-rule="evenodd" clip-rule="evenodd" stroke-linejoin="round" stroke-miterlimit="2">
  <path d="m157.4 28.567-5.459-13.807h-8.139l5.888 13.806 5.734 13.447-5.172 13.568h7.962l10.364-27.016 5.3-13.806-8.08.001-5.107 13.807-1.55 4.179h-.088l-1.653-4.179ZM125.296 5.258v9.5h-3.43v6.457h3.429v13.421c0 3.176.741 5.582 2.223 7.219a7.805 7.805 0 0 0 5.711 2.47h.053c.107-.001.215-.005.322-.01l.069.002c.114.002.229.003.343.003h.069a16.773 16.773 0 0 0 3.877-.47 15.826 15.826 0 0 0 3.342-1.365l-2-6.218a8.071 8.071 0 0 1-3.601 1.014l-.06.002-.004-.004c-.06.005-.12.008-.179.008h-.018a2.18 2.18 0 0 1-1.765-.908 5.225 5.225 0 0 1-.594-2.818V21.215h7.9v-6.45h-7.9V4.415l-7.787.843Zm-62.948 9.003h-.038c-.115 0-.23.002-.346.006l-.038.001a13.264 13.264 0 0 0-9.781 4.241 14.357 14.357 0 0 0-2.861 4.794 17.003 17.003 0 0 0-1.01 5.265c-.012.271-.034.535-.034.809a17.327 17.327 0 0 0 1.047 6.116 13.638 13.638 0 0 0 2.89 4.736 12.901 12.901 0 0 0 4.416 3.007 14.312 14.312 0 0 0 5.431 1.076h.045l.089-.001.04.002c.145.006.289.009.433.009h.04a10.374 10.374 0 0 0 8.174-4.021h.144v3.516H78.4V14.761h-7.787v3.283h-.116a10.771 10.771 0 0 0-8.149-3.783Zm115.796 20.547.06.001c2.616.008 4.771 2.15 4.794 4.766a4.54 4.54 0 0 1-1.408 3.341 4.645 4.645 0 0 1-3.297 1.394h-.089l-.06.001h-.03a4.743 4.743 0 0 1-3.353-1.381v-.001a4.524 4.524 0 0 1-1.409-3.355 4.577 4.577 0 0 1 1.409-3.371 4.71 4.71 0 0 1 3.352-1.395h.031ZM15.845 12.821l-.068-.001a17.18 17.18 0 0 0-8.041 1.986 14.192 14.192 0 0 0-5.7 5.573A16.354 16.354 0 0 0 0 28.566v.031a16.392 16.392 0 0 0 2.026 8.192 14.155 14.155 0 0 0 5.588 5.557 16.367 16.367 0 0 0 7.775 1.962h.066l.197-.002.063.001.253.002.064-.001a19.48 19.48 0 0 0 7.491-1.524 15.325 15.325 0 0 0 5.588-3.958l-5.6-4.934a9.293 9.293 0 0 1-3 2.208l-.001.006a9.292 9.292 0 0 1-3.869.869h-.131l-.066-.001-.258.006h-.052a7.835 7.835 0 0 1-5.581-2.351 8.383 8.383 0 0 1-2.268-6.06v-.029a9.62 9.62 0 0 1 .58-3.38 7.606 7.606 0 0 1 1.626-2.654 7.403 7.403 0 0 1 2.573-1.721 8.657 8.657 0 0 1 3.32-.624l.064-.001.128-.001h.064a8.956 8.956 0 0 1 6.838 3.26l5.512-4.751a14.627 14.627 0 0 0-5.725-4.339 17.943 17.943 0 0 0-7.217-1.506l-.203-.002Zm100.646 30.995V14.76h-7.787v29.056h7.787Zm-13.649-29.55H102.727l-.038.001h-.04a9.978 9.978 0 0 0-4.813 1.234h.002l-.036.02a11.809 11.809 0 0 0-3.863 3.476l-.024.034h-.087V14.76h-7.786v29.056h7.786V30.334c0-.592.053-1.183.159-1.766a7.238 7.238 0 0 1 1.8-3.7 7.058 7.058 0 0 1 5.067-2.132h.047c.111.001.223.005.334.011.6 0 1.287.029 2.064.087v-8.539a4.363 4.363 0 0 0-.457-.029Zm-60.161 29.55V.001h-7.787v43.815h7.787ZM63.61 21.268l.047-.001.094-.001h.047a6.742 6.742 0 0 1 5.057 2.326 8.178 8.178 0 0 1 2.045 4.976c.022.274.032.553.032.838v-.002a7.92 7.92 0 0 1-2.121 5.723 7.452 7.452 0 0 1-5.249 2.208h-.046a7.454 7.454 0 0 1-5.296-2.208 8.02 8.02 0 0 1-2.075-5.722c0-.287.012-.565.031-.838a7.893 7.893 0 0 1 2.1-5.06 7.067 7.067 0 0 1 5.334-2.239Zm48.928-20.106h-.03a4.679 4.679 0 0 0-3.324 1.395 4.534 4.534 0 0 0-1.409 3.342 4.702 4.702 0 0 0 2.398 4.128 4.795 4.795 0 0 0 2.386.64h.13a4.69 4.69 0 0 0 3.31-1.394 4.542 4.542 0 0 0 1.424-3.37 4.51 4.51 0 0 0-1.424-3.342 4.687 4.687 0 0 0-3.311-1.398h-.09l-.06-.001Z" fill="#131327" fill-rule="nonzero"/>
</svg>
