<svg xmlns="http://www.w3.org/2000/svg" width="14.75" height="13.461" viewBox="0 0 14.75 13.461"><defs><style>.a{fill:#ff0433;}</style></defs><path class="a" d="M-403.745,616.2a.988.988,0,0,0,.99,0c.7-.422,6.88-4.253,6.88-8.521a4.553,4.553,0,0,0-4.81-4.807,3.519,3.519,0,0,0-2.346,1l-.219.206-.219-.206a3.519,3.519,0,0,0-2.346-1,4.553,4.553,0,0,0-4.81,4.807C-410.625,611.948-404.45,615.781-403.745,616.2Zm-2.827-11.337a2.105,2.105,0,0,1,2.386,1.753.963.963,0,0,0,.936.742.963.963,0,0,0,.936-.742,2.105,2.105,0,0,1,2.386-1.753,2.673,2.673,0,0,1,2.129,2.816c0,2.719-4.391,5.839-5.271,6.437l-.18.121-.18-.121c-.88-.6-5.271-3.718-5.271-6.437A2.673,2.673,0,0,1-406.572,604.866Z" transform="translate(410.625 -602.875)"/></svg>