<svg viewBox="0 0 124 134" xmlns="http://www.w3.org/2000/svg" xml:space="preserve" fill-rule="evenodd" clip-rule="evenodd" stroke-linejoin="round" stroke-miterlimit="2">
  <path d="M32.91 8.419A60.402 60.402 0 0 0 8.682 32.132C2.914 42.291.021 53.909.003 66.987v.13c0 13.043 2.872 24.661 8.616 34.855a60.204 60.204 0 0 0 23.776 23.646c10.105 5.571 21.507 8.357 34.206 8.358 12.438 0 23.603-2.16 33.494-6.48 9.891-4.32 17.817-9.935 23.776-16.844l-23.842-20.99a39.84 39.84 0 0 1-30.059 13.085c-10.282 0-18.64-3.325-25.073-9.975-6.408-6.625-9.624-15.22-9.648-25.785 0-.045-.006-.086-.006-.13a40.887 40.887 0 0 1 2.463-14.383 32.394 32.394 0 0 1 6.932-11.275 31.459 31.459 0 0 1 10.947-7.321 36.907 36.907 0 0 1 14.124-2.656A38.124 38.124 0 0 1 99.9 45.088l23.454-20.212A62.248 62.248 0 0 0 98.993 6.411 76.337 76.337 0 0 0 68.284-.001c-13.22 0-25.011 2.807-35.374 8.42" fill="#15213c"/>
  <path d="m66.229 133.975.372.001c.688 0 1.372-.007 2.05-.02a77.285 77.285 0 0 1-7.145-15.484 4.187 4.187 0 0 1 .223-3.21c1.031-2.059 3.571-2.909 5.633-1.883a4.182 4.182 0 0 1 2.091 2.391l.013.037a68.946 68.946 0 0 0 8.756 17.496c.788-.093 1.57-.198 2.346-.312a66.851 66.851 0 0 1-9.099-17.811l-.011-.037a6.27 6.27 0 0 0-3.16-3.631 6.287 6.287 0 0 0-2.813-.665 6.291 6.291 0 0 0-5.962 8.285 79.331 79.331 0 0 0 6.706 14.843Zm-6.14-.253a85.12 85.12 0 0 1-5.542-12.922l-.001.001a11.506 11.506 0 0 1 .589-8.744l.026-.061c2.81-5.642 9.752-7.988 15.408-5.207l.059.028a11.5 11.5 0 0 1 5.8 6.661l.011.037a61.614 61.614 0 0 0 9.889 18.422c-.755.167-1.516.323-2.283.468a63.703 63.703 0 0 1-9.606-18.261l-.011-.035a9.415 9.415 0 0 0-4.727-5.419l-.054-.03c-4.63-2.27-10.307-.35-12.609 4.264l-.03.054a9.414 9.414 0 0 0-.474 7.157 83.566 83.566 0 0 0 6.018 13.744 78.966 78.966 0 0 1-2.463-.157Zm12.18.099a73.688 73.688 0 0 1-2.417-4.083 74.782 74.782 0 0 1-5.358-12.266 1.052 1.052 0 0 1 .987-1.395c.455 0 .86.296.998.729a72.666 72.666 0 0 0 5.212 11.923 71.304 71.304 0 0 0 2.968 4.93 92.72 92.72 0 0 1-2.39.162Zm-12.693-32.377c1.698.459 3.466.797 5.305 1.013-7.781.321-14.082 6.819-14.082 14.673 0 1.584.256 3.156.758 4.658a87.637 87.637 0 0 0 4.782 11.545 72.792 72.792 0 0 1-2.515-.369 89.535 89.535 0 0 1-4.255-10.502 16.768 16.768 0 0 1-.868-5.325c0-7.131 4.546-13.283 10.875-15.693Zm-6.483-2.517c.736.383 1.487.737 2.256 1.062a19.971 19.971 0 0 0-7.699 8.257l-.028.054a19.862 19.862 0 0 0-1.034 15.162 92.546 92.546 0 0 0 3.42 8.768c-.86-.19-1.713-.395-2.558-.616a94.744 94.744 0 0 1-2.849-7.482l-.005-.004a21.969 21.969 0 0 1 1.147-16.755l.028-.061a21.968 21.968 0 0 1 7.322-8.385Zm36.608 32.189a73.848 73.848 0 0 0 2.207-.624 56.482 56.482 0 0 1-6.599-9.64l-.001-.002a1.046 1.046 0 0 0-.917-.544 1.05 1.05 0 0 0-1.044 1.044c0 .175.044.347.128.5a58.229 58.229 0 0 0 6.226 9.266ZM48.405 95.921c.576.447 1.164.871 1.765 1.273a24.872 24.872 0 0 0-7.216 8.712 25.114 25.114 0 0 0-1.342 19.221c.277.825.541 1.588.792 2.281.251.693.535 1.446.853 2.266a1.054 1.054 0 0 1 .035.707 63.61 63.61 0 0 1-2.318-.819 94.692 94.692 0 0 1-1.347-3.769l.001.004a27.181 27.181 0 0 1 1.456-20.818 26.911 26.911 0 0 1 7.321-9.058Zm32.463 5.459c-.814.219-1.637.413-2.467.581a19.895 19.895 0 0 1 5.968 8.817l.011.037a53.366 53.366 0 0 0 9.464 17.084l.024.028c.423.51.854 1.012 1.296 1.506a71.056 71.056 0 0 0 2.116-.779 51.524 51.524 0 0 1-1.805-2.067l-.017-.02a51.319 51.319 0 0 1-9.079-16.379l-.011-.037a21.898 21.898 0 0 0-5.5-8.771Zm-36.387-9.047a32.814 32.814 0 0 0 1.478 1.489c-9.359 7.871-13.34 20.946-9.317 32.969.128.384.258.766.39 1.146a63.12 63.12 0 0 1-2.626-1.256c-3.858-12.576.369-26.092 10.075-34.348Zm55.923 35.027a47.866 47.866 0 0 1-2.505-2.798 1.05 1.05 0 0 1-.241-.668 1.047 1.047 0 0 1 1.853-.667 46.206 46.206 0 0 0 2.917 3.209c-.665.314-1.34.622-2.024.924Zm-9.376-30.301a32.077 32.077 0 0 1 5.289 9.761l.013.037a40.665 40.665 0 0 0 11.023 17.039c-.636.358-1.283.709-1.939 1.053a42.827 42.827 0 0 1-11.084-17.463l-.011-.034a29.984 29.984 0 0 0-5.131-9.353 40.15 40.15 0 0 0 1.84-1.04Zm-62.829 26.037a59.755 59.755 0 0 0 2.413 1.507 35.592 35.592 0 0 1-.767-8.92v-.021a1.05 1.05 0 0 0-1.045-1.045 1.05 1.05 0 0 0-1.043.984 37.606 37.606 0 0 0 .442 7.495Zm67.162-29.048a37.602 37.602 0 0 1 5.923 11.108l.011.033a35.427 35.427 0 0 0 10.306 15.479c.135.125.233.283.286.455-.555.37-1.119.733-1.692 1.091a37.632 37.632 0 0 1-10.893-16.392l-.004-.032a35.535 35.535 0 0 0-5.601-10.484c.565-.404 1.12-.824 1.664-1.258Zm-9.082 5.447a27.184 27.184 0 0 1 5.065 8.991l.009.028a46.381 46.381 0 0 0 5.629 11.354 1.043 1.043 0 1 1-1.727 1.175 47.846 47.846 0 0 1-3.354-5.724 48.665 48.665 0 0 1-2.545-6.168l-.007-.024a25.092 25.092 0 0 0-5.13-8.811 39.24 39.24 0 0 0 2.06-.821Zm-63.763 19.364a60.188 60.188 0 0 0 2.203 1.768 40.784 40.784 0 0 1 5.718-24.576 1.05 1.05 0 0 0 .151-.541 1.048 1.048 0 0 0-1.945-.541 42.96 42.96 0 0 0-6.127 23.89Zm76.188-27.803a37.644 37.644 0 0 1 7.952 13.518l.009.033a35.478 35.478 0 0 0 8.725 14.013 61.07 61.07 0 0 1-1.697 1.257 37.649 37.649 0 0 1-9.024-14.637l-.006-.032a35.542 35.542 0 0 0-7.475-12.711 39.563 39.563 0 0 0 1.516-1.441Zm-24.829 11.552a16.736 16.736 0 0 1 7.521 9.204l.015.046a57.277 57.277 0 0 0 1.985 5.099 1.045 1.045 0 1 1-1.911.853 55.24 55.24 0 0 1-1.1-2.638 63.532 63.532 0 0 1-.974-2.7l-.011-.033a14.648 14.648 0 0 0-7.361-8.451 14.679 14.679 0 0 0-3.742-1.272c.552.021 1.11.031 1.673.031 1.31.018 2.613-.029 3.905-.139Zm29.947-9.606 5.173 4.553a37.505 37.505 0 0 1 1.851 4.542l.011.033a35.419 35.419 0 0 0 8.178 13.459c-.515.465-1.041.922-1.578 1.372a37.616 37.616 0 0 1-8.598-14.199l-.004-.03a35.493 35.493 0 0 0-5.033-9.73ZM36.748 78.501c.201.717.422 1.421.663 2.112-10.679 8.252-17.703 21.051-18.06 35.384a59.858 59.858 0 0 1-1.998-2.033c.959-14.44 8.393-27.231 19.395-35.463Zm75.976 22.338 3.655 3.217a35.377 35.377 0 0 0 5.871 8.392 55.61 55.61 0 0 1-1.464 1.493 37.613 37.613 0 0 1-8.062-13.102ZM41.227 88.255c.39.578.8 1.144 1.228 1.698-6.237 5.281-10.681 12.686-12.131 21.2a1.05 1.05 0 0 1-1.031.869 1.051 1.051 0 0 1-1.031-1.224c1.545-9.068 6.298-16.946 12.965-22.543Zm-5.622-15.488c-12.401 8.361-20.497 21.38-22.874 35.63a61.187 61.187 0 0 0 1.779 2.306c1.802-14.138 9.438-27.197 21.448-35.639a41.551 41.551 0 0 1-.353-2.297Zm-26.9 29.359a59.26 59.26 0 0 0 1.525 2.581l.051-.224a56.927 56.927 0 0 1 4.045-11.615l-.005.001a1.047 1.047 0 0 0-.961-1.469c-.393 0-.753.22-.933.569a59.095 59.095 0 0 0-3.722 10.157Zm26.968-41.599a63.595 63.595 0 0 0-20.445 17.017 64.34 64.34 0 0 0-9.873 17.757c.395.942.812 1.874 1.252 2.796a62.153 62.153 0 0 1 10.262-19.254 61.52 61.52 0 0 1 18.514-15.784c.07-.847.167-1.692.29-2.532Zm2.829 22.831a58.363 58.363 0 0 0-7.523 7.704 1.045 1.045 0 0 0 .811 1.708c.313 0 .611-.141.81-.384a56.213 56.213 0 0 1 6.852-7.085 32.62 32.62 0 0 1-.95-1.943Zm-1.304-29.4a69.194 69.194 0 0 0-34.442 33.91c.291 1.027.606 2.042.944 3.046 6.463-15.193 18.245-27.27 32.733-34.258.224-.907.479-1.807.765-2.698Zm-1.955 12.851a58.402 58.402 0 0 0-20.81 21.303 1.05 1.05 0 0 0-.138.519c0 .574.472 1.047 1.046 1.047.375 0 .722-.202.908-.527a56.308 56.308 0 0 1 19.055-19.923 49.997 49.997 0 0 1-.055-2.241c0-.045-.006-.086-.006-.13v-.048ZM.997 79.913a74.471 74.471 0 0 1 13.572-17.12 1.046 1.046 0 0 1 1.761.766c0 .29-.121.568-.333.766l-.001.005a72.287 72.287 0 0 0-14.4 18.818 71.593 71.593 0 0 1-.599-3.235Zm-.881-8.382c.058 1.141.14 2.27.245 3.388a77.927 77.927 0 0 1 9.426-11.857 77.093 77.093 0 0 1 12.232-10.246 1.045 1.045 0 0 0-1.166-1.733 78.824 78.824 0 0 0-12.564 10.52 79.746 79.746 0 0 0-8.173 9.928Zm40.107-24.439a31.98 31.98 0 0 0-1.452 2.785 72.497 72.497 0 0 0-19.563 11.609c-.189.161-.43.25-.679.25a1.045 1.045 0 0 1-.654-1.862 74.554 74.554 0 0 1 22.348-12.782Zm6.041-7.452c-3.384.999-9.607 3.116-12.65 4.441a79.565 79.565 0 0 0-9.094 4.67 1.046 1.046 0 1 0 1.078 1.792A77.775 77.775 0 0 1 34.452 46a78.804 78.804 0 0 1 8.784-3.216c.449-.543.917-1.071 1.402-1.585a31.04 31.04 0 0 1 1.626-1.559Z" fill="#b2f8d3"/>
</svg>
