<?xml version="1.0" encoding="UTF-8"?><svg id="a" xmlns="http://www.w3.org/2000/svg" xmlns:xlink="http://www.w3.org/1999/xlink" viewBox="0 0 763.77 230.13"><defs><style>.i{fill:url(#e);}.j{fill:url(#d);}.k{fill:url(#g);}.l{fill:url(#f);}.m{fill:url(#h);}.n{fill:url(#c);}.o{fill:url(#b);}</style><linearGradient id="b" x1="2.23" y1="95.1" x2="64.39" y2="95.1" gradientTransform="matrix(1, 0, 0, 1, 0, 0)" gradientUnits="userSpaceOnUse"><stop offset="0" stop-color="#65baea"/><stop offset=".16" stop-color="#56aeef"/><stop offset=".46" stop-color="#3f9cf8"/><stop offset=".75" stop-color="#3191fd"/><stop offset="1" stop-color="#2d8eff"/></linearGradient><linearGradient id="c" x1="41.21" y1="30.38" x2="164.31" y2="30.38" gradientTransform="matrix(1, 0, 0, 1, 0, 0)" gradientUnits="userSpaceOnUse"><stop offset="0" stop-color="#f28a14"/><stop offset=".24" stop-color="#f28d19"/><stop offset=".52" stop-color="#f49827"/><stop offset=".83" stop-color="#f7a93f"/><stop offset="1" stop-color="#fab650"/></linearGradient><linearGradient id="d" x1="117.82" y1="69.32" x2="227.47" y2="69.32" gradientTransform="matrix(1, 0, 0, 1, 0, 0)" gradientUnits="userSpaceOnUse"><stop offset="0" stop-color="#f28a14"/><stop offset="1" stop-color="#fccc81"/></linearGradient><linearGradient id="e" x1="88.41" y1="215.81" x2="214.6" y2="89.63" gradientTransform="matrix(1, 0, 0, 1, 0, 0)" gradientUnits="userSpaceOnUse"><stop offset="0" stop-color="#e6520f"/><stop offset="1" stop-color="#fab650"/></linearGradient><linearGradient id="f" x1="5.11" y1="98.44" x2="61.81" y2="131.18" gradientTransform="matrix(1, 0, 0, 1, 0, 0)" gradientUnits="userSpaceOnUse"><stop offset="0" stop-color="#65baea"/><stop offset="1" stop-color="#2d8eff"/></linearGradient><linearGradient id="g" x1="102.14" y1="81.67" x2="152.66" y2="132.18" gradientTransform="matrix(1, 0, 0, 1, 0, 0)" gradientUnits="userSpaceOnUse"><stop offset="0" stop-color="#42a5f5"/><stop offset=".21" stop-color="#429bf8"/><stop offset=".62" stop-color="#438efd"/><stop offset="1" stop-color="#448aff"/></linearGradient><linearGradient id="h" x1="47.27" y1="127.93" x2="94.79" y2="175.46" xlink:href="#g"/></defs><g><path d="M274.71,39.63h38.44c22.45,0,36.02,13.31,36.02,32.52v.27c0,21.77-16.93,33.06-38.04,33.06h-15.72v28.22h-20.7V39.63Zm37.09,47.44c10.35,0,16.4-6.18,16.4-14.25v-.27c0-9.27-6.45-14.25-16.8-14.25h-15.99v28.76h16.4Z"/><path d="M360.32,86.94v-.27c0-26.75,21.1-48.65,50.13-48.65s49.86,21.64,49.86,48.38v.27c0,26.75-21.1,48.65-50.13,48.65s-49.86-21.64-49.86-48.38Zm78.35,0v-.27c0-16.13-11.83-29.57-28.49-29.57s-28.22,13.17-28.22,29.3v.27c0,16.13,11.83,29.57,28.49,29.57s28.22-13.17,28.22-29.3Z"/><path d="M478.72,39.63h19.08l44.08,57.93V39.63h20.43v94.08h-17.61l-45.56-59.81v59.81h-20.43V39.63Z"/><path d="M606.8,58.71h-28.63v-19.08h77.95v19.08h-28.63v75h-20.7V58.71Z"/><path d="M663.78,86.94v-.27c0-26.75,21.1-48.65,50.13-48.65s49.86,21.64,49.86,48.38v.27c0,26.75-21.1,48.65-50.13,48.65s-49.86-21.64-49.86-48.38Zm78.35,0v-.27c0-16.13-11.83-29.57-28.49-29.57s-28.22,13.17-28.22,29.3v.27c0,16.13,11.83,29.57,28.49,29.57s28.22-13.17,28.22-29.3Z"/><path d="M274.71,195.19l2.74-3.25c4.09,3.7,8.01,5.54,13.44,5.54s8.74-2.8,8.74-6.66v-.11c0-3.64-1.96-5.71-10.19-7.45-9.02-1.96-13.16-4.87-13.16-11.31v-.11c0-6.16,5.43-10.7,12.88-10.7,5.71,0,9.8,1.62,13.78,4.82l-2.58,3.42c-3.64-2.97-7.28-4.26-11.31-4.26-5.1,0-8.34,2.8-8.34,6.33v.11c0,3.7,2.02,5.77,10.64,7.62,8.74,1.9,12.77,5.1,12.77,11.09v.11c0,6.72-5.6,11.09-13.38,11.09-6.22,0-11.31-2.07-16.02-6.27Z"/><path d="M311.39,181.42v-.11c0-10.81,8.12-20.27,20.05-20.27s19.94,9.35,19.94,20.16q.06,.06,0,.11c0,10.81-8.12,20.27-20.05,20.27s-19.94-9.35-19.94-20.16Zm35.39,0v-.11c0-8.9-6.5-16.18-15.46-16.18s-15.34,7.17-15.34,16.07v.11c0,8.9,6.5,16.18,15.46,16.18s15.34-7.17,15.34-16.07Z"/><path d="M360.73,161.71h4.42v35.11h22.06v4.09h-26.49v-39.2Z"/><path d="M393.65,184.5v-22.79h4.42v22.51c0,8.46,4.48,13.22,11.98,13.22s11.82-4.37,11.82-12.94v-22.79h4.42v22.46c0,11.42-6.55,17.36-16.35,17.36s-16.3-5.94-16.3-17.02Z"/><path d="M447.13,165.79h-13.16v-4.09h30.8v4.09h-13.16v35.11h-4.48v-35.11Z"/><path d="M473.45,161.71h4.42v39.2h-4.42v-39.2Z"/><path d="M487.61,181.42v-.11c0-10.81,8.12-20.27,20.05-20.27s19.94,9.35,19.94,20.16q.06,.06,0,.11c0,10.81-8.12,20.27-20.05,20.27s-19.94-9.35-19.94-20.16Zm35.39,0v-.11c0-8.9-6.5-16.18-15.46-16.18s-15.34,7.17-15.34,16.07v.11c0,8.9,6.5,16.18,15.46,16.18s15.34-7.17,15.34-16.07Z"/><path d="M536.95,161.71h4.14l24.7,31.42v-31.42h4.31v39.2h-3.53l-25.31-32.14v32.14h-4.31v-39.2Z"/><path d="M578.61,195.19l2.74-3.25c4.09,3.7,8.01,5.54,13.44,5.54s8.74-2.8,8.74-6.66v-.11c0-3.64-1.96-5.71-10.19-7.45-9.02-1.96-13.16-4.87-13.16-11.31v-.11c0-6.16,5.43-10.7,12.88-10.7,5.71,0,9.8,1.62,13.78,4.82l-2.58,3.42c-3.64-2.97-7.28-4.26-11.31-4.26-5.1,0-8.34,2.8-8.34,6.33v.11c0,3.7,2.02,5.77,10.64,7.62,8.74,1.9,12.77,5.1,12.77,11.09v.11c0,6.72-5.6,11.09-13.38,11.09-6.22,0-11.31-2.07-16.02-6.27Z"/></g><g><path class="o" d="M15.2,86.78l-5.95,5.96c-3.15,3.15-5.47,6.8-7.01,10.69,16.55-7.42,37.87-13.22,62.17-16.65H15.2Z"/><path class="n" d="M164.31,36.15l-26.89-26.89c-12.34-12.34-32.36-12.34-44.7,0L41.21,60.77H117.82c.63-.43,1.2-.9,1.84-1.33,14.56-9.84,29.64-17.52,44.65-23.29Z"/><path class="j" d="M220.89,92.73l-56.58-56.58c-15.01,5.77-31.89,14.35-46.49,24.62,0,0,15.88-.43,15.25,0h16.35c18.8,0,34.95,11.27,42.13,27.41,19.62,3.34,21.78,8.24,35.92,14.32-1.54-3.54-3.69-6.87-6.58-9.77Z"/><path class="i" d="M146.46,153l-49.42,.09v71.35c12.33,8.6,29.38,7.46,40.38-3.53l83.47-83.47c9.45-9.45,11.6-23.38,6.58-34.94-14.13-6.08-16.3-10.98-35.92-14.32,2.54,5.72,3.99,12.04,3.99,18.71,0,19.43-14.2,46.12-49.09,46.12Z"/><path class="l" d="M71.03,86.78h-6.64c-24.29,3.43-45.61,9.22-62.17,16.65-4.51,11.37-2.18,24.82,7.01,34.01l31.04,31.04c3.69-21.16,14.29-43.48,30.75-64.3v-17.4Z"/><g><path class="k" d="M149.42,86.78h-52.38v40.3h52.38c11.12,0,20.14-9.03,20.14-20.15s-9.02-20.15-20.14-20.15Z"/><path class="m" d="M71.03,104.17c-16.46,20.82-27.06,43.14-30.75,64.3l30.75,30.75V104.17Z"/></g></g></svg>